<svg width="290" height="54" viewBox="0 0 290 54" fill="none" xmlns="http://www.w3.org/2000/svg">
<rect x="56.75" y="36.75" width="4.5" height="4.5" fill="white" stroke="white" stroke-width="0.5"/>
<rect x="266.75" y="36.75" width="4.5" height="4.5" fill="white" stroke="white" stroke-width="0.5"/>
<rect x="0.25" y="-0.25" width="4.5" height="4.5" transform="matrix(-1 0 0 1 85.5 37)" fill="white" stroke="white" stroke-width="0.5"/>
<rect x="0.25" y="-0.25" width="4.5" height="4.5" transform="matrix(-1 0 0 1 283.5 37)" fill="white" stroke="white" stroke-width="0.5"/>
<rect x="0.25" y="-0.25" width="4.5" height="4.5" transform="matrix(-1 0 0 1 157.5 37)" fill="white" stroke="white" stroke-width="0.5"/>
<rect x="0.25" y="-0.25" width="4.5" height="4.5" transform="matrix(-1 0 0 1 175.5 31)" fill="white" stroke="white" stroke-width="0.5"/>
<rect x="0.25" y="-0.25" width="4.5" height="4.5" transform="matrix(-1 0 0 1 211.5 31)" fill="white" stroke="white" stroke-width="0.5"/>
<rect x="0.25" y="-0.25" width="4.5" height="4.5" transform="matrix(-1 0 0 1 97.5 37)" fill="white" stroke="white" stroke-width="0.5"/>
<rect x="0.25" y="-0.25" width="4.5" height="4.5" transform="matrix(-1 0 0 1 229.5 37)" fill="white" stroke="white" stroke-width="0.5"/>
<rect x="56.75" y="30.75" width="4.5" height="4.5" fill="white" stroke="white" stroke-width="0.5"/>
<rect x="260.75" y="30.75" width="4.5" height="4.5" fill="white" stroke="white" stroke-width="0.5"/>
<rect x="0.25" y="-0.25" width="4.5" height="4.5" transform="matrix(-1 0 0 1 85.5 31)" fill="white" stroke="white" stroke-width="0.5"/>
<rect x="0.25" y="-0.25" width="4.5" height="4.5" transform="matrix(-1 0 0 1 157.5 31)" fill="white" stroke="white" stroke-width="0.5"/>
<rect x="0.25" y="-0.25" width="4.5" height="4.5" transform="matrix(-1 0 0 1 175.5 25)" fill="white" stroke="white" stroke-width="0.5"/>
<rect x="0.25" y="-0.25" width="4.5" height="4.5" transform="matrix(-1 0 0 1 211.5 25)" fill="white" stroke="white" stroke-width="0.5"/>
<rect x="0.25" y="-0.25" width="4.5" height="4.5" transform="matrix(-1 0 0 1 121.5 37)" fill="white" stroke="white" stroke-width="0.5"/>
<rect x="0.25" y="-0.25" width="4.5" height="4.5" transform="matrix(-1 0 0 1 253.5 37)" fill="white" stroke="white" stroke-width="0.5"/>
<rect x="0.25" y="-0.25" width="4.5" height="4.5" transform="matrix(-1 0 0 1 133.5 13)" fill="white" stroke="white" stroke-width="0.5"/>
<rect x="0.25" y="-0.25" width="4.5" height="4.5" transform="matrix(-1 0 0 1 133.5 19)" fill="white" stroke="white" stroke-width="0.5"/>
<rect x="0.25" y="-0.25" width="4.5" height="4.5" transform="matrix(-1 0 0 1 133.5 25)" fill="white" stroke="white" stroke-width="0.5"/>
<rect x="0.25" y="-0.25" width="4.5" height="4.5" transform="matrix(-1 0 0 1 151.5 25)" fill="white" stroke="white" stroke-width="0.5"/>
<rect x="0.25" y="-0.25" width="4.5" height="4.5" transform="matrix(-1 0 0 1 97.5 31)" fill="white" stroke="white" stroke-width="0.5"/>
<rect x="0.25" y="-0.25" width="4.5" height="4.5" transform="matrix(-1 0 0 1 229.5 31)" fill="white" stroke="white" stroke-width="0.5"/>
<rect x="56.75" y="24.75" width="4.5" height="4.5" fill="white" stroke="white" stroke-width="0.5"/>
<rect x="260.75" y="24.75" width="4.5" height="4.5" fill="white" stroke="white" stroke-width="0.5"/>
<rect x="62.75" y="24.75" width="4.5" height="4.5" fill="white" stroke="white" stroke-width="0.5"/>
<rect x="266.75" y="24.75" width="4.5" height="4.5" fill="white" stroke="white" stroke-width="0.5"/>
<rect x="200.75" y="36.75" width="4.5" height="4.5" fill="white" stroke="white" stroke-width="0.5"/>
<rect x="68.75" y="24.75" width="4.5" height="4.5" fill="white" stroke="white" stroke-width="0.5"/>
<rect x="272.75" y="24.75" width="4.5" height="4.5" fill="white" stroke="white" stroke-width="0.5"/>
<rect x="206.75" y="36.75" width="4.5" height="4.5" fill="white" stroke="white" stroke-width="0.5"/>
<rect x="74.75" y="24.75" width="4.5" height="4.5" fill="white" stroke="white" stroke-width="0.5"/>
<rect x="278.75" y="24.75" width="4.5" height="4.5" fill="white" stroke="white" stroke-width="0.5"/>
<rect x="212.75" y="36.75" width="4.5" height="4.5" fill="white" stroke="white" stroke-width="0.5"/>
<rect x="0.25" y="-0.25" width="4.5" height="4.5" transform="matrix(-1 0 0 1 85.5 25)" fill="white" stroke="white" stroke-width="0.5"/>
<rect x="0.25" y="-0.25" width="4.5" height="4.5" transform="matrix(-1 0 0 1 289.5 25)" fill="white" stroke="white" stroke-width="0.5"/>
<rect x="0.25" y="-0.25" width="4.5" height="4.5" transform="matrix(-1 0 0 1 157.5 25)" fill="white" stroke="white" stroke-width="0.5"/>
<rect x="0.25" y="-0.25" width="4.5" height="4.5" transform="matrix(-1 0 0 1 175.5 19)" fill="white" stroke="white" stroke-width="0.5"/>
<rect x="0.25" y="-0.25" width="4.5" height="4.5" transform="matrix(-1 0 0 1 211.5 19)" fill="white" stroke="white" stroke-width="0.5"/>
<rect x="0.25" y="-0.25" width="4.5" height="4.5" transform="matrix(-1 0 0 1 121.5 31)" fill="white" stroke="white" stroke-width="0.5"/>
<rect x="0.25" y="-0.25" width="4.5" height="4.5" transform="matrix(-1 0 0 1 253.5 31)" fill="white" stroke="white" stroke-width="0.5"/>
<rect x="0.25" y="-0.25" width="4.5" height="4.5" transform="matrix(-1 0 0 1 97.5 25)" fill="white" stroke="white" stroke-width="0.5"/>
<rect x="0.25" y="-0.25" width="4.5" height="4.5" transform="matrix(-1 0 0 1 229.5 25)" fill="white" stroke="white" stroke-width="0.5"/>
<rect x="56.75" y="18.75" width="4.5" height="4.5" fill="white" stroke="white" stroke-width="0.5"/>
<rect x="260.75" y="18.75" width="4.5" height="4.5" fill="white" stroke="white" stroke-width="0.5"/>
<rect x="0.25" y="-0.25" width="4.5" height="4.5" transform="matrix(-1 0 0 1 85.5 19)" fill="white" stroke="white" stroke-width="0.5"/>
<rect x="0.25" y="-0.25" width="4.5" height="4.5" transform="matrix(-1 0 0 1 289.5 19)" fill="white" stroke="white" stroke-width="0.5"/>
<rect x="0.25" y="-0.25" width="4.5" height="4.5" transform="matrix(-1 0 0 1 157.5 19)" fill="white" stroke="white" stroke-width="0.5"/>
<rect x="0.25" y="-0.25" width="4.5" height="4.5" transform="matrix(-1 0 0 1 175.5 13)" fill="white" stroke="white" stroke-width="0.5"/>
<rect x="0.25" y="-0.25" width="4.5" height="4.5" transform="matrix(-1 0 0 1 211.5 13)" fill="white" stroke="white" stroke-width="0.5"/>
<rect x="0.25" y="-0.25" width="4.5" height="4.5" transform="matrix(-1 0 0 1 187.5 13)" fill="white" stroke="white" stroke-width="0.5"/>
<rect x="0.25" y="-0.25" width="4.5" height="4.5" transform="matrix(-1 0 0 1 205.5 13)" fill="white" stroke="white" stroke-width="0.5"/>
<rect x="0.25" y="-0.25" width="4.5" height="4.5" transform="matrix(-1 0 0 1 121.5 25)" fill="white" stroke="white" stroke-width="0.5"/>
<rect x="0.25" y="-0.25" width="4.5" height="4.5" transform="matrix(-1 0 0 1 253.5 25)" fill="white" stroke="white" stroke-width="0.5"/>
<rect x="0.25" y="-0.25" width="4.5" height="4.5" transform="matrix(-1 0 0 1 97.5 19)" fill="white" stroke="white" stroke-width="0.5"/>
<rect x="0.25" y="-0.25" width="4.5" height="4.5" transform="matrix(-1 0 0 1 229.5 19)" fill="white" stroke="white" stroke-width="0.5"/>
<rect x="56.75" y="12.75" width="4.5" height="4.5" fill="white" stroke="white" stroke-width="0.5"/>
<rect x="266.75" y="12.75" width="4.5" height="4.5" fill="white" stroke="white" stroke-width="0.5"/>
<rect x="272.75" y="12.75" width="4.5" height="4.5" fill="white" stroke="white" stroke-width="0.5"/>
<rect x="278.75" y="12.75" width="4.5" height="4.5" fill="white" stroke="white" stroke-width="0.5"/>
<rect x="-0.25" y="0.25" width="4.5" height="4.5" transform="matrix(1 0 0 -1 129 47.5)" fill="white" stroke="white" stroke-width="0.5"/>
<rect x="0.25" y="-0.25" width="4.5" height="4.5" transform="matrix(-1 0 0 1 85.5 13)" fill="white" stroke="white" stroke-width="0.5"/>
<rect x="0.25" y="-0.25" width="4.5" height="4.5" transform="matrix(-1 0 0 1 277.5 37)" fill="white" stroke="white" stroke-width="0.5"/>
<rect x="157.25" y="47.25" width="4.5" height="4.5" transform="rotate(180 157.25 47.25)" fill="white" stroke="white" stroke-width="0.5"/>
<rect x="181.25" y="41.25" width="4.5" height="4.5" transform="rotate(180 181.25 41.25)" fill="white" stroke="white" stroke-width="0.5"/>
<rect x="187.25" y="41.25" width="4.5" height="4.5" transform="rotate(180 187.25 41.25)" fill="white" stroke="white" stroke-width="0.5"/>
<rect x="193.25" y="35.25" width="4.5" height="4.5" transform="rotate(180 193.25 35.25)" fill="white" stroke="white" stroke-width="0.5"/>
<rect x="0.25" y="-0.25" width="4.5" height="4.5" transform="matrix(-1 0 0 1 157.5 13)" fill="white" stroke="white" stroke-width="0.5"/>
<rect x="0.25" y="-0.25" width="4.5" height="4.5" transform="matrix(-1 0 0 1 175.5 7)" fill="white" stroke="white" stroke-width="0.5"/>
<rect x="0.25" y="-0.25" width="4.5" height="4.5" transform="matrix(-1 0 0 1 175.5 1)" fill="white" stroke="white" stroke-width="0.5"/>
<rect x="0.25" y="-0.25" width="4.5" height="4.5" transform="matrix(-1 0 0 1 211.5 1)" fill="white" stroke="white" stroke-width="0.5"/>
<rect x="0.25" y="-0.25" width="4.5" height="4.5" transform="matrix(-1 0 0 1 169.5 13)" fill="white" stroke="white" stroke-width="0.5"/>
<rect x="0.25" y="-0.25" width="4.5" height="4.5" transform="matrix(-1 0 0 1 181.5 13)" fill="white" stroke="white" stroke-width="0.5"/>
<rect x="0.25" y="-0.25" width="4.5" height="4.5" transform="matrix(-1 0 0 1 121.5 19)" fill="white" stroke="white" stroke-width="0.5"/>
<rect x="0.25" y="-0.25" width="4.5" height="4.5" transform="matrix(-1 0 0 1 253.5 19)" fill="white" stroke="white" stroke-width="0.5"/>
<rect x="0.25" y="-0.25" width="4.5" height="4.5" transform="matrix(-1 0 0 1 97.5 13)" fill="white" stroke="white" stroke-width="0.5"/>
<rect x="0.25" y="-0.25" width="4.5" height="4.5" transform="matrix(-1 0 0 1 229.5 13)" fill="white" stroke="white" stroke-width="0.5"/>
<rect x="62.75" y="6.75" width="4.5" height="4.5" fill="white" stroke="white" stroke-width="0.5"/>
<rect x="-0.25" y="0.25" width="4.5" height="4.5" transform="matrix(1 0 0 -1 135 53.5)" fill="white" stroke="white" stroke-width="0.5"/>
<rect x="98.75" y="18.75" width="4.5" height="4.5" fill="white" stroke="white" stroke-width="0.5"/>
<rect x="230.75" y="12.75" width="4.5" height="4.5" fill="white" stroke="white" stroke-width="0.5"/>
<rect x="0.25" y="-0.25" width="4.5" height="4.5" transform="matrix(-1 0 0 1 79.5 7)" fill="white" stroke="white" stroke-width="0.5"/>
<rect x="151.25" y="53.25" width="4.5" height="4.5" transform="rotate(180 151.25 53.25)" fill="white" stroke="white" stroke-width="0.5"/>
<rect x="0.25" y="-0.25" width="4.5" height="4.5" transform="matrix(-1 0 0 1 115.5 13)" fill="white" stroke="white" stroke-width="0.5"/>
<rect x="0.25" y="-0.25" width="4.5" height="4.5" transform="matrix(-1 0 0 1 247.5 13)" fill="white" stroke="white" stroke-width="0.5"/>
<rect x="0.25" y="-0.25" width="4.5" height="4.5" transform="matrix(-1 0 0 1 145.5 31)" fill="white" stroke="white" stroke-width="0.5"/>
<rect x="0.25" y="-0.25" width="4.5" height="4.5" transform="matrix(-1 0 0 1 145.5 49)" fill="white" stroke="white" stroke-width="0.5"/>
<rect x="68.75" y="0.75" width="4.5" height="4.5" fill="white" stroke="white" stroke-width="0.5"/>
<rect x="104.75" y="12.75" width="4.5" height="4.5" fill="white" stroke="white" stroke-width="0.5"/>
<rect x="236.75" y="18.75" width="4.5" height="4.5" fill="white" stroke="white" stroke-width="0.5"/>
<rect x="236.75" y="24.75" width="4.5" height="4.5" fill="white" stroke="white" stroke-width="0.5"/>
<rect x="236.75" y="30.75" width="4.5" height="4.5" fill="white" stroke="white" stroke-width="0.5"/>
<rect x="134.75" y="30.75" width="4.5" height="4.5" fill="white" stroke="white" stroke-width="0.5"/>
<rect x="6.75" y="36.75" width="4.5" height="4.5" fill="white" stroke="white" stroke-width="0.5"/>
<rect x="35.25" y="5.25" width="4.5" height="4.5" transform="rotate(180 35.25 5.25)" fill="white" stroke="white" stroke-width="0.5"/>
<rect x="0.25" y="-0.25" width="4.5" height="4.5" transform="matrix(-1 0 0 1 23.5 37)" fill="white" stroke="white" stroke-width="0.5"/>
<rect x="-0.25" y="0.25" width="4.5" height="4.5" transform="matrix(1 0 0 -1 19 5.5)" fill="white" stroke="white" stroke-width="0.5"/>
<rect x="0.25" y="-0.25" width="4.5" height="4.5" transform="matrix(-1 0 0 1 35.5 37)" fill="white" stroke="white" stroke-width="0.5"/>
<rect x="-0.25" y="0.25" width="4.5" height="4.5" transform="matrix(1 0 0 -1 7 5.5)" fill="white" stroke="white" stroke-width="0.5"/>
<rect x="0.75" y="30.75" width="4.5" height="4.5" fill="white" stroke="white" stroke-width="0.5"/>
<rect x="41.25" y="11.25" width="4.5" height="4.5" transform="rotate(180 41.25 11.25)" fill="white" stroke="white" stroke-width="0.5"/>
<rect x="0.75" y="24.75" width="4.5" height="4.5" fill="white" stroke="white" stroke-width="0.5"/>
<rect x="41.25" y="17.25" width="4.5" height="4.5" transform="rotate(180 41.25 17.25)" fill="white" stroke="white" stroke-width="0.5"/>
<rect x="18.75" y="18.75" width="4.5" height="4.5" fill="white" stroke="white" stroke-width="0.5"/>
<rect x="0.25" y="-0.25" width="4.5" height="4.5" transform="matrix(-1 0 0 1 29.5 19)" fill="white" stroke="white" stroke-width="0.5"/>
<rect x="0.75" y="18.75" width="4.5" height="4.5" fill="white" stroke="white" stroke-width="0.5"/>
<rect x="41.25" y="23.25" width="4.5" height="4.5" transform="rotate(180 41.25 23.25)" fill="white" stroke="white" stroke-width="0.5"/>
<rect x="0.25" y="-0.25" width="4.5" height="4.5" transform="matrix(-1 0 0 1 23.5 13)" fill="white" stroke="white" stroke-width="0.5"/>
<rect x="0.75" y="12.75" width="4.5" height="4.5" fill="white" stroke="white" stroke-width="0.5"/>
<rect x="41.25" y="29.25" width="4.5" height="4.5" transform="rotate(180 41.25 29.25)" fill="white" stroke="white" stroke-width="0.5"/>
<rect x="24.75" y="36.75" width="4.5" height="4.5" fill="white" stroke="white" stroke-width="0.5"/>
<rect x="17.25" y="5.25" width="4.5" height="4.5" transform="rotate(180 17.25 5.25)" fill="white" stroke="white" stroke-width="0.5"/>
<rect x="0.75" y="6.75" width="4.5" height="4.5" fill="white" stroke="white" stroke-width="0.5"/>
<rect x="41.25" y="35.25" width="4.5" height="4.5" transform="rotate(180 41.25 35.25)" fill="white" stroke="white" stroke-width="0.5"/>
<rect x="0.25" y="-0.25" width="4.5" height="4.5" transform="matrix(-1 0 0 1 17.5 37)" fill="white" stroke="white" stroke-width="0.5"/>
<rect x="-0.25" y="0.25" width="4.5" height="4.5" transform="matrix(1 0 0 -1 25 5.5)" fill="white" stroke="white" stroke-width="0.5"/>
</svg>
